<svg xmlns="http://www.w3.org/2000/svg" width="56" height="56" id="profile-list-medium" data-supported-dps="56x56">
  <path fill="#FFF" d="M12 50.5a.5.5 0 01-.5-.5V6a.5.5 0 01.5-.5h35a.5.5 0 01.5.5v44c0 .275-.225.5-.5.5H12z"/>
  <path fill="#005E93" d="M46 7v42H13V7h33m1-3H12a2 2 0 00-2 2v44a2 2 0 002 2h35a2 2 0 002-2V6a2 2 0 00-2-2z"/>
  <path fill="#9BDAF3" d="M29 12h15v3H29zM29 17h12.857v3H29zM29 27h15v3H29zM29 32h12.857v3H29zM29 42h15v3H29zM29 47h12.857v3H29z"/>
  <circle fill="#00A0DC" cx="21" cy="31" r="6"/>
  <path fill="#FFF" d="M23 32l-1.2-.4v-.8c.667-.333.767-.767.767-.767v-1.6c0-.982-.585-1.433-1.567-1.433s-1.567.451-1.567 1.433v1.6s.1.433.767.767v.8L19 32c-.887.314-1.6 1.059-1.6 2h7.2c0-.941-.713-1.686-1.6-2z"/>
  <circle fill="#00A0DC" cx="21" cy="16" r="6"/>
  <path fill="#FFF" d="M23 17l-1.2-.4v-.8c.667-.333.767-.767.767-.767v-1.6c0-.982-.585-1.433-1.567-1.433s-1.567.451-1.567 1.433v1.6s.1.433.767.767v.8L19 17c-.887.314-1.6 1.059-1.6 2h7.2c0-.941-.713-1.686-1.6-2z"/>
  <g>
    <circle fill="#00A0DC" cx="21" cy="46" r="6"/>
    <path fill="#FFF" d="M23 47l-1.2-.4v-.8c.667-.333.767-.767.767-.767v-1.6c0-.982-.585-1.433-1.567-1.433s-1.567.451-1.567 1.433v1.6s.1.433.767.767v.8L19 47c-.887.314-1.6 1.059-1.6 2h7.2c0-.941-.713-1.686-1.6-2z"/>
  </g>
  <path fill="#005E93" d="M14 49h31v3H14z"/>
</svg>
