<svg id="Layer_1" xmlns="http://www.w3.org/2000/svg" width="56" height="56" data-supported-dps="56x56">
  <defs>
    <style>
      .cls-2{fill:#005e93}
    </style>
  </defs>
  <path d="M7 13v5h42v-5H7zm3.5 4a1.5 1.5 0 111.5-1.5 1.5 1.5 0 01-1.5 1.5zm4 0a1.5 1.5 0 111.5-1.5 1.5 1.5 0 01-1.5 1.5zm4 0a1.5 1.5 0 111.5-1.5 1.5 1.5 0 01-1.5 1.5z" fill="#9bdaf3"/>
  <circle class="cls-2" cx="10.5" cy="15.52" r="1.5"/>
  <circle class="cls-2" cx="14.5" cy="15.52" r="1.5"/>
  <circle class="cls-2" cx="18.5" cy="15.52" r="1.5"/>
  <path class="cls-2" d="M50 10H6a2 2 0 00-2 2v32a2 2 0 002 2h44a2 2 0 002-2V12a2 2 0 00-2-2zm-1 3v5H7v-5h42zM7 43V21h42v22H7z"/>
  <path d="M41.5 23a4.46 4.46 0 00-4.42 5.31l-5.71 4.76a4.43 4.43 0 00-6.41.67l-6-2v-.24a4.54 4.54 0 10-1.19 3L24 36.58a4.5 4.5 0 108.91-.9l5.71-4.76A4.46 4.46 0 0041.5 32a4.5 4.5 0 000-9zm-27 10a1.5 1.5 0 111.5-1.5 1.5 1.5 0 01-1.5 1.5zm14 5a1.5 1.5 0 111.5-1.5 1.5 1.5 0 01-1.5 1.5zm13-9a1.5 1.5 0 111.5-1.5 1.5 1.5 0 01-1.5 1.5z" fill="#1795d6"/>
</svg>
